M48
; DRILL file {KiCad (6.0.10)} date Wed Dec  4 22:05:17 2024
; FORMAT={-:-/ absolute / metric / decimal}
; #@! TF.CreationDate,2024-12-04T22:05:17+05:30
; #@! TF.GenerationSoftware,Kicad,Pcbnew,(6.0.10)
; #@! TF.FileFunction,MixedPlating,1,2
FMAT,2
METRIC
; #@! TA.AperFunction,Plated,PTH,ViaDrill
T1C0.300
; #@! TA.AperFunction,Plated,PTH,ComponentDrill
T2C0.550
; #@! TA.AperFunction,Plated,PTH,ComponentDrill
T3C0.850
; #@! TA.AperFunction,Plated,PTH,ComponentDrill
T4C1.000
; #@! TA.AperFunction,NonPlated,NPTH,ComponentDrill
T5C0.800
; #@! TA.AperFunction,NonPlated,NPTH,ComponentDrill
T6C0.900
; #@! TA.AperFunction,NonPlated,NPTH,ComponentDrill
T7C2.200
%
G90
G05
T1
X188.976Y-82.042
X192.874Y-86.956
X194.564Y-86.614
X194.818Y-95.25
X194.818Y-98.552
X195.58Y-89.916
X195.834Y-85.598
X196.342Y-102.362
X197.866Y-102.362
X199.39Y-91.694
X199.644Y-87.63
X201.676Y-96.266
X202.184Y-98.806
X204.216Y-98.806
X204.324Y-93.072
X209.042Y-88.625
X212.598Y-97.282
X213.106Y-92.456
X213.106Y-93.472
X213.614Y-97.282
X215.138Y-87.884
X216.916Y-98.044
X218.44Y-94.742
X219.964Y-96.012
X219.964Y-97.79
T4
X193.538Y-76.454
X194.574Y-104.902
X196.078Y-76.454
X197.114Y-104.902
X198.618Y-76.454
X199.654Y-104.902
X201.158Y-76.454
X202.194Y-104.902
X206.492Y-76.454
X209.032Y-76.454
X211.572Y-76.454
X214.112Y-76.454
T5
X217.386Y-86.654
X217.386Y-91.654
T6
X186.835Y-83.844
X186.835Y-86.844
T7
X188.722Y-78.232
X188.722Y-103.232
X218.722Y-78.232
X218.722Y-103.232
T2
G00X219.811Y-85.279
M15
G01X220.461Y-85.279
M16
G05
G00X219.811Y-93.029
M15
G01X220.461Y-93.029
M16
G05
T3
G00X216.061Y-85.429
M15
G01X216.611Y-85.429
M16
G05
G00X216.061Y-92.879
M15
G01X216.611Y-92.879
M16
G05
T0
M30
