%TF.GenerationSoftware,KiCad,Pcbnew,(6.0.10)*%
%TF.CreationDate,2024-12-04T22:05:22+05:30*%
%TF.ProjectId,STM32 Based PCB Design,53544d33-3220-4426-9173-656420504342,rev?*%
%TF.SameCoordinates,Original*%
%TF.FileFunction,Copper,L2,Bot*%
%TF.FilePolarity,Positive*%
%FSLAX46Y46*%
G04 Gerber Fmt 4.6, Leading zero omitted, Abs format (unit mm)*
G04 Created by KiCad (PCBNEW (6.0.10)) date 2024-12-04 22:05:22*
%MOMM*%
%LPD*%
G01*
G04 APERTURE LIST*
%TA.AperFunction,ComponentPad*%
%ADD10O,2.000000X1.450000*%
%TD*%
%TA.AperFunction,ComponentPad*%
%ADD11O,1.800000X1.150000*%
%TD*%
%TA.AperFunction,ComponentPad*%
%ADD12R,1.700000X1.700000*%
%TD*%
%TA.AperFunction,ComponentPad*%
%ADD13O,1.700000X1.700000*%
%TD*%
%TA.AperFunction,ViaPad*%
%ADD14C,0.700000*%
%TD*%
%TA.AperFunction,Conductor*%
%ADD15C,0.500000*%
%TD*%
G04 APERTURE END LIST*
D10*
%TO.P,J4,6,Shield*%
%TO.N,unconnected-(J4-Pad6)*%
X216336000Y-85429000D03*
D11*
X220136000Y-93029000D03*
D10*
X216336000Y-92879000D03*
D11*
X220136000Y-85279000D03*
%TD*%
D12*
%TO.P,J3,1,Pin_1*%
%TO.N,+3.3V*%
X214112000Y-76454000D03*
D13*
%TO.P,J3,2,Pin_2*%
%TO.N,/SWDIO*%
X211572000Y-76454000D03*
%TO.P,J3,3,Pin_3*%
%TO.N,/SWCLK*%
X209032000Y-76454000D03*
%TO.P,J3,4,Pin_4*%
%TO.N,GND*%
X206492000Y-76454000D03*
%TD*%
D12*
%TO.P,J1,1,Pin_1*%
%TO.N,+3.3V*%
X194574000Y-104902000D03*
D13*
%TO.P,J1,2,Pin_2*%
%TO.N,/I2C2_SCL*%
X197114000Y-104902000D03*
%TO.P,J1,3,Pin_3*%
%TO.N,/I2C2_SDA*%
X199654000Y-104902000D03*
%TO.P,J1,4,Pin_4*%
%TO.N,GND*%
X202194000Y-104902000D03*
%TD*%
D12*
%TO.P,J2,1,Pin_1*%
%TO.N,+3.3V*%
X201158000Y-76454000D03*
D13*
%TO.P,J2,2,Pin_2*%
%TO.N,/UART1_RX*%
X198618000Y-76454000D03*
%TO.P,J2,3,Pin_3*%
%TO.N,/UART1_TX*%
X196078000Y-76454000D03*
%TO.P,J2,4,Pin_4*%
%TO.N,GND*%
X193538000Y-76454000D03*
%TD*%
D14*
%TO.N,+3.3V*%
X219964000Y-97790000D03*
X218440000Y-94742000D03*
X196342000Y-102362000D03*
X202184000Y-98806000D03*
X197866000Y-102362000D03*
X204216000Y-98806000D03*
%TO.N,GND*%
X213106000Y-93472000D03*
X216916000Y-98044000D03*
X199390000Y-91694000D03*
X213614000Y-97282000D03*
X194564000Y-86614000D03*
X204324000Y-93072000D03*
X209042000Y-88625499D03*
X201676000Y-96266000D03*
X195834000Y-85598000D03*
X188976000Y-82042000D03*
X213106000Y-92456000D03*
X199644000Y-87630000D03*
X219964000Y-96012000D03*
X195580000Y-89916000D03*
X192874000Y-86956000D03*
X194818000Y-95250000D03*
X194818000Y-98552000D03*
X215138000Y-87884000D03*
X212598000Y-97282000D03*
%TD*%
D15*
%TO.N,+3.3V*%
X219964000Y-97282000D02*
X219964000Y-97790000D01*
X218440000Y-94742000D02*
X218440000Y-95619371D01*
X204216000Y-98806000D02*
X202184000Y-98806000D01*
X197866000Y-102362000D02*
X196342000Y-102362000D01*
X219964000Y-97143371D02*
X219964000Y-97282000D01*
X218440000Y-95619371D02*
X219964000Y-97143371D01*
%TD*%
%TA.AperFunction,Conductor*%
%TO.N,GND*%
G36*
X218662423Y-74470298D02*
G01*
X218678893Y-74473134D01*
X218689567Y-74471208D01*
X218696535Y-74471180D01*
X218713343Y-74470057D01*
X219042675Y-74484951D01*
X219054819Y-74486101D01*
X219409207Y-74537351D01*
X219421166Y-74539686D01*
X219755760Y-74622292D01*
X219768796Y-74625511D01*
X219780482Y-74629014D01*
X220118001Y-74748586D01*
X220129286Y-74753221D01*
X220453418Y-74905380D01*
X220464177Y-74911093D01*
X220599543Y-74991743D01*
X220771790Y-75094367D01*
X220781951Y-75101119D01*
X221070068Y-75313738D01*
X221079516Y-75321457D01*
X221345330Y-75561346D01*
X221353974Y-75569955D01*
X221451371Y-75677009D01*
X221590330Y-75829747D01*
X221594938Y-75834812D01*
X221602689Y-75844223D01*
X221748332Y-76039931D01*
X221816461Y-76131479D01*
X221823252Y-76141609D01*
X222007766Y-76448490D01*
X222013521Y-76459225D01*
X222166983Y-76782746D01*
X222171660Y-76794006D01*
X222201977Y-76878501D01*
X222292589Y-77131045D01*
X222296139Y-77142717D01*
X222383359Y-77489994D01*
X222385745Y-77501958D01*
X222438418Y-77856127D01*
X222439617Y-77868268D01*
X222442923Y-77935388D01*
X222454530Y-78171031D01*
X222455828Y-78197393D01*
X222454748Y-78214598D01*
X222454748Y-78221316D01*
X222452864Y-78232000D01*
X222454748Y-78242683D01*
X222455616Y-78247606D01*
X222457500Y-78269139D01*
X222457500Y-103086861D01*
X222455616Y-103108391D01*
X222452864Y-103124000D01*
X222454748Y-103134684D01*
X222454748Y-103141609D01*
X222455807Y-103158467D01*
X222440368Y-103472749D01*
X222439677Y-103486805D01*
X222438484Y-103498912D01*
X222386097Y-103852080D01*
X222386079Y-103852198D01*
X222383707Y-103864121D01*
X222340815Y-104035357D01*
X222296926Y-104210573D01*
X222293394Y-104222217D01*
X222173073Y-104558493D01*
X222168416Y-104569736D01*
X222015713Y-104892600D01*
X222009976Y-104903332D01*
X221826370Y-105209659D01*
X221819610Y-105219777D01*
X221606851Y-105506650D01*
X221599131Y-105516056D01*
X221359287Y-105780682D01*
X221350682Y-105789287D01*
X221086056Y-106029131D01*
X221076650Y-106036851D01*
X220789777Y-106249610D01*
X220779659Y-106256370D01*
X220473332Y-106439976D01*
X220462600Y-106445713D01*
X220139736Y-106598416D01*
X220128493Y-106603073D01*
X219792217Y-106723394D01*
X219780573Y-106726926D01*
X219434121Y-106813707D01*
X219422206Y-106816077D01*
X219068912Y-106868484D01*
X219056808Y-106869677D01*
X218728467Y-106885807D01*
X218711609Y-106884748D01*
X218704684Y-106884748D01*
X218694000Y-106882864D01*
X218678391Y-106885616D01*
X218656861Y-106887500D01*
X188518978Y-106887500D01*
X188509064Y-106886309D01*
X188509034Y-106886766D01*
X188498206Y-106886067D01*
X188487668Y-106883499D01*
X188476884Y-106884690D01*
X188470683Y-106884290D01*
X188453023Y-106884276D01*
X188140392Y-106849249D01*
X188128887Y-106847407D01*
X187792829Y-106777283D01*
X187781546Y-106774369D01*
X187453548Y-106672957D01*
X187442587Y-106668994D01*
X187125585Y-106537203D01*
X187115049Y-106532229D01*
X186811837Y-106371220D01*
X186801816Y-106365278D01*
X186515083Y-106176479D01*
X186505665Y-106169622D01*
X186237933Y-105954692D01*
X186229213Y-105946989D01*
X186074346Y-105796646D01*
X193423500Y-105796646D01*
X193426618Y-105822846D01*
X193472061Y-105925153D01*
X193551287Y-106004241D01*
X193561758Y-106008870D01*
X193561759Y-106008871D01*
X193645147Y-106045737D01*
X193645149Y-106045738D01*
X193653673Y-106049506D01*
X193679354Y-106052500D01*
X195468646Y-106052500D01*
X195472300Y-106052065D01*
X195472302Y-106052065D01*
X195477266Y-106051474D01*
X195494846Y-106049382D01*
X195597153Y-106003939D01*
X195676241Y-105924713D01*
X195721506Y-105822327D01*
X195724500Y-105796646D01*
X195724500Y-105082300D01*
X195744185Y-105015261D01*
X195796989Y-104969506D01*
X195866147Y-104959562D01*
X195929703Y-104988587D01*
X195967477Y-105047365D01*
X195972234Y-105074190D01*
X195972423Y-105077072D01*
X195972425Y-105077082D01*
X195972796Y-105082749D01*
X196024845Y-105287690D01*
X196027219Y-105292841D01*
X196027221Y-105292845D01*
X196064908Y-105374594D01*
X196113369Y-105479714D01*
X196235405Y-105652391D01*
X196386865Y-105799937D01*
X196391588Y-105803093D01*
X196391592Y-105803096D01*
X196462663Y-105850584D01*
X196562677Y-105917411D01*
X196756953Y-106000878D01*
X196792277Y-106008871D01*
X196957638Y-106046289D01*
X196957642Y-106046290D01*
X196963186Y-106047544D01*
X197089315Y-106052500D01*
X197168789Y-106055623D01*
X197168791Y-106055623D01*
X197174470Y-106055846D01*
X197180090Y-106055031D01*
X197180092Y-106055031D01*
X197378103Y-106026320D01*
X197378104Y-106026320D01*
X197383730Y-106025504D01*
X197402588Y-106019103D01*
X197578565Y-105959367D01*
X197578568Y-105959366D01*
X197583955Y-105957537D01*
X197588916Y-105954759D01*
X197588922Y-105954756D01*
X197695530Y-105895052D01*
X197768442Y-105854219D01*
X197806165Y-105822846D01*
X197926645Y-105722644D01*
X197931012Y-105719012D01*
X197973282Y-105668188D01*
X198062584Y-105560813D01*
X198062585Y-105560811D01*
X198066219Y-105556442D01*
X198132479Y-105438127D01*
X198166756Y-105376922D01*
X198166759Y-105376916D01*
X198169537Y-105371955D01*
X198185232Y-105325721D01*
X198235675Y-105177118D01*
X198237504Y-105171730D01*
X198239726Y-105156404D01*
X198261820Y-105004033D01*
X198290921Y-104940512D01*
X198344225Y-104906346D01*
X198424974Y-104906346D01*
X198478347Y-104940736D01*
X198507296Y-105004327D01*
X198508271Y-105013707D01*
X198512796Y-105082749D01*
X198564845Y-105287690D01*
X198567219Y-105292841D01*
X198567221Y-105292845D01*
X198604908Y-105374594D01*
X198653369Y-105479714D01*
X198775405Y-105652391D01*
X198926865Y-105799937D01*
X198931588Y-105803093D01*
X198931592Y-105803096D01*
X199002663Y-105850584D01*
X199102677Y-105917411D01*
X199296953Y-106000878D01*
X199332277Y-106008871D01*
X199497638Y-106046289D01*
X199497642Y-106046290D01*
X199503186Y-106047544D01*
X199629315Y-106052500D01*
X199708789Y-106055623D01*
X199708791Y-106055623D01*
X199714470Y-106055846D01*
X199720090Y-106055031D01*
X199720092Y-106055031D01*
X199918103Y-106026320D01*
X199918104Y-106026320D01*
X199923730Y-106025504D01*
X199942588Y-106019103D01*
X200118565Y-105959367D01*
X200118568Y-105959366D01*
X200123955Y-105957537D01*
X200128916Y-105954759D01*
X200128922Y-105954756D01*
X200235530Y-105895052D01*
X200308442Y-105854219D01*
X200346165Y-105822846D01*
X200466645Y-105722644D01*
X200471012Y-105719012D01*
X200513282Y-105668188D01*
X200602584Y-105560813D01*
X200602585Y-105560811D01*
X200606219Y-105556442D01*
X200708059Y-105374594D01*
X200757990Y-105325721D01*
X200826418Y-105311601D01*
X200891617Y-105336717D01*
X200928630Y-105382778D01*
X201018110Y-105574667D01*
X201023508Y-105584017D01*
X201152784Y-105768643D01*
X201159719Y-105776907D01*
X201319091Y-105936279D01*
X201327357Y-105943215D01*
X201511992Y-106072498D01*
X201521324Y-106077886D01*
X201725603Y-106173143D01*
X201735736Y-106176832D01*
X201926779Y-106228022D01*
X201940653Y-106227691D01*
X201944000Y-106219875D01*
X201944000Y-106214806D01*
X202444000Y-106214806D01*
X202447910Y-106228123D01*
X202456326Y-106229333D01*
X202652264Y-106176832D01*
X202662397Y-106173143D01*
X202866676Y-106077886D01*
X202876008Y-106072498D01*
X203060643Y-105943215D01*
X203068909Y-105936279D01*
X203228281Y-105776907D01*
X203235216Y-105768643D01*
X203364492Y-105584017D01*
X203369890Y-105574667D01*
X203465143Y-105370397D01*
X203468832Y-105360264D01*
X203520022Y-105169221D01*
X203519691Y-105155347D01*
X203511875Y-105152000D01*
X202461830Y-105152000D01*
X202446831Y-105156404D01*
X202445644Y-105157774D01*
X202444000Y-105165332D01*
X202444000Y-106214806D01*
X201944000Y-106214806D01*
X201944000Y-104634170D01*
X202444000Y-104634170D01*
X202448404Y-104649169D01*
X202449774Y-104650356D01*
X202457332Y-104652000D01*
X203506806Y-104652000D01*
X203520123Y-104648090D01*
X203521333Y-104639674D01*
X203468832Y-104443736D01*
X203465143Y-104433603D01*
X203369890Y-104229333D01*
X203364492Y-104219983D01*
X203235216Y-104035357D01*
X203228281Y-104027093D01*
X203068909Y-103867721D01*
X203060643Y-103860785D01*
X202876008Y-103731502D01*
X202866676Y-103726114D01*
X202662397Y-103630857D01*
X202652264Y-103627168D01*
X202461221Y-103575978D01*
X202447347Y-103576309D01*
X202444000Y-103584125D01*
X202444000Y-104634170D01*
X201944000Y-104634170D01*
X201944000Y-103589194D01*
X201940090Y-103575877D01*
X201931674Y-103574667D01*
X201735736Y-103627168D01*
X201725603Y-103630857D01*
X201521333Y-103726110D01*
X201511983Y-103731508D01*
X201327357Y-103860784D01*
X201319093Y-103867719D01*
X201159719Y-104027093D01*
X201152784Y-104035357D01*
X201023508Y-104219983D01*
X201018110Y-104229333D01*
X200926664Y-104425438D01*
X200880491Y-104477877D01*
X200813298Y-104497029D01*
X200746417Y-104476813D01*
X200703071Y-104427878D01*
X200639165Y-104298290D01*
X200512651Y-104128867D01*
X200508481Y-104125012D01*
X200508478Y-104125009D01*
X200402552Y-104027093D01*
X200357381Y-103985337D01*
X200351574Y-103981673D01*
X200183363Y-103875539D01*
X200183361Y-103875538D01*
X200178554Y-103872505D01*
X199982160Y-103794152D01*
X199976579Y-103793042D01*
X199976576Y-103793041D01*
X199878468Y-103773527D01*
X199774775Y-103752901D01*
X199769088Y-103752827D01*
X199769083Y-103752826D01*
X199569034Y-103750207D01*
X199569029Y-103750207D01*
X199563346Y-103750133D01*
X199557742Y-103751096D01*
X199557741Y-103751096D01*
X199360550Y-103784979D01*
X199360547Y-103784980D01*
X199354953Y-103785941D01*
X199156575Y-103859127D01*
X199151697Y-103862029D01*
X199151695Y-103862030D01*
X198979740Y-103964332D01*
X198979737Y-103964334D01*
X198974856Y-103967238D01*
X198815881Y-104106655D01*
X198812362Y-104111119D01*
X198812359Y-104111122D01*
X198761836Y-104175211D01*
X198684976Y-104272708D01*
X198586523Y-104459836D01*
X198584837Y-104465267D01*
X198584835Y-104465271D01*
X198556117Y-104557760D01*
X198523820Y-104661773D01*
X198506851Y-104805140D01*
X198479425Y-104869398D01*
X198424974Y-104906346D01*
X198344225Y-104906346D01*
X198344667Y-104906063D01*
X198292057Y-104874081D01*
X198261453Y-104811271D01*
X198260232Y-104801909D01*
X198250601Y-104697100D01*
X198250081Y-104691440D01*
X198192686Y-104487931D01*
X198099165Y-104298290D01*
X197972651Y-104128867D01*
X197968481Y-104125012D01*
X197968478Y-104125009D01*
X197862552Y-104027093D01*
X197817381Y-103985337D01*
X197811574Y-103981673D01*
X197643363Y-103875539D01*
X197643361Y-103875538D01*
X197638554Y-103872505D01*
X197442160Y-103794152D01*
X197436579Y-103793042D01*
X197436576Y-103793041D01*
X197338468Y-103773527D01*
X197234775Y-103752901D01*
X197229088Y-103752827D01*
X197229083Y-103752826D01*
X197029034Y-103750207D01*
X197029029Y-103750207D01*
X197023346Y-103750133D01*
X197017742Y-103751096D01*
X197017741Y-103751096D01*
X196820550Y-103784979D01*
X196820547Y-103784980D01*
X196814953Y-103785941D01*
X196616575Y-103859127D01*
X196611697Y-103862029D01*
X196611695Y-103862030D01*
X196439740Y-103964332D01*
X196439737Y-103964334D01*
X196434856Y-103967238D01*
X196275881Y-104106655D01*
X196272362Y-104111119D01*
X196272359Y-104111122D01*
X196221836Y-104175211D01*
X196144976Y-104272708D01*
X196046523Y-104459836D01*
X196044837Y-104465267D01*
X196044835Y-104465271D01*
X196016117Y-104557760D01*
X195983820Y-104661773D01*
X195983152Y-104667418D01*
X195983151Y-104667422D01*
X195971640Y-104764681D01*
X195944213Y-104828942D01*
X195886397Y-104868173D01*
X195816549Y-104869919D01*
X195756845Y-104833625D01*
X195726241Y-104770814D01*
X195724500Y-104750106D01*
X195724500Y-104007354D01*
X195721382Y-103981154D01*
X195675939Y-103878847D01*
X195596713Y-103799759D01*
X195586242Y-103795130D01*
X195586241Y-103795129D01*
X195502853Y-103758263D01*
X195502851Y-103758262D01*
X195494327Y-103754494D01*
X195468646Y-103751500D01*
X193679354Y-103751500D01*
X193675700Y-103751935D01*
X193675698Y-103751935D01*
X193670734Y-103752526D01*
X193653154Y-103754618D01*
X193550847Y-103800061D01*
X193471759Y-103879287D01*
X193467130Y-103889758D01*
X193467129Y-103889759D01*
X193432543Y-103967991D01*
X193426494Y-103981673D01*
X193423500Y-104007354D01*
X193423500Y-105796646D01*
X186074346Y-105796646D01*
X185982889Y-105707861D01*
X185974913Y-105699354D01*
X185752159Y-105438127D01*
X185745014Y-105428902D01*
X185547814Y-105147910D01*
X185541567Y-105138053D01*
X185371649Y-104839756D01*
X185366357Y-104829356D01*
X185225233Y-104516412D01*
X185220942Y-104505560D01*
X185109864Y-104180737D01*
X185106612Y-104169530D01*
X185026560Y-103835710D01*
X185024375Y-103824247D01*
X184996358Y-103627168D01*
X184976056Y-103484359D01*
X184974960Y-103472749D01*
X184971689Y-103403295D01*
X184960501Y-103165789D01*
X187317996Y-103165789D01*
X187326913Y-103403295D01*
X187327990Y-103408430D01*
X187327991Y-103408435D01*
X187365918Y-103589194D01*
X187375719Y-103635904D01*
X187463020Y-103856963D01*
X187465741Y-103861447D01*
X187465743Y-103861451D01*
X187552061Y-104003698D01*
X187586319Y-104060153D01*
X187742090Y-104239664D01*
X187925880Y-104390362D01*
X187930441Y-104392958D01*
X187930442Y-104392959D01*
X188127875Y-104505345D01*
X188127880Y-104505347D01*
X188132433Y-104507939D01*
X188355844Y-104589034D01*
X188589725Y-104631326D01*
X188614619Y-104632500D01*
X188781680Y-104632500D01*
X188784296Y-104632278D01*
X188784297Y-104632278D01*
X188953590Y-104617913D01*
X188958823Y-104617469D01*
X189188874Y-104557760D01*
X189405576Y-104460143D01*
X189602732Y-104327409D01*
X189774705Y-104163355D01*
X189916579Y-103972670D01*
X189967505Y-103872505D01*
X190021913Y-103765493D01*
X190021915Y-103765488D01*
X190024295Y-103760807D01*
X190026256Y-103754494D01*
X190093215Y-103538848D01*
X190094775Y-103533824D01*
X190126004Y-103298211D01*
X190121032Y-103165789D01*
X217317996Y-103165789D01*
X217326913Y-103403295D01*
X217327990Y-103408430D01*
X217327991Y-103408435D01*
X217365918Y-103589194D01*
X217375719Y-103635904D01*
X217463020Y-103856963D01*
X217465741Y-103861447D01*
X217465743Y-103861451D01*
X217552061Y-104003698D01*
X217586319Y-104060153D01*
X217742090Y-104239664D01*
X217925880Y-104390362D01*
X217930441Y-104392958D01*
X217930442Y-104392959D01*
X218127875Y-104505345D01*
X218127880Y-104505347D01*
X218132433Y-104507939D01*
X218355844Y-104589034D01*
X218589725Y-104631326D01*
X218614619Y-104632500D01*
X218781680Y-104632500D01*
X218784296Y-104632278D01*
X218784297Y-104632278D01*
X218953590Y-104617913D01*
X218958823Y-104617469D01*
X219188874Y-104557760D01*
X219405576Y-104460143D01*
X219602732Y-104327409D01*
X219774705Y-104163355D01*
X219916579Y-103972670D01*
X219967505Y-103872505D01*
X220021913Y-103765493D01*
X220021915Y-103765488D01*
X220024295Y-103760807D01*
X220026256Y-103754494D01*
X220093215Y-103538848D01*
X220094775Y-103533824D01*
X220126004Y-103298211D01*
X220119062Y-103113317D01*
X220117284Y-103065949D01*
X220117284Y-103065948D01*
X220117087Y-103060705D01*
X220107198Y-103013571D01*
X220069361Y-102833242D01*
X220069360Y-102833239D01*
X220068281Y-102828096D01*
X220061291Y-102810395D01*
X220011277Y-102683754D01*
X219980980Y-102607037D01*
X219935203Y-102531598D01*
X219860408Y-102408341D01*
X219857681Y-102403847D01*
X219701910Y-102224336D01*
X219518120Y-102073638D01*
X219503662Y-102065408D01*
X219316125Y-101958655D01*
X219316120Y-101958653D01*
X219311567Y-101956061D01*
X219088156Y-101874966D01*
X218854275Y-101832674D01*
X218829381Y-101831500D01*
X218662320Y-101831500D01*
X218659704Y-101831722D01*
X218659703Y-101831722D01*
X218648484Y-101832674D01*
X218485177Y-101846531D01*
X218255126Y-101906240D01*
X218038424Y-102003857D01*
X217841268Y-102136591D01*
X217669295Y-102300645D01*
X217527421Y-102491330D01*
X217525042Y-102496008D01*
X217525042Y-102496009D01*
X217432675Y-102677683D01*
X217419705Y-102703193D01*
X217418146Y-102708213D01*
X217418145Y-102708216D01*
X217387925Y-102805542D01*
X217349225Y-102930176D01*
X217348534Y-102935386D01*
X217348534Y-102935388D01*
X217320804Y-103144606D01*
X217317996Y-103165789D01*
X190121032Y-103165789D01*
X190119062Y-103113317D01*
X190117284Y-103065949D01*
X190117284Y-103065948D01*
X190117087Y-103060705D01*
X190107198Y-103013571D01*
X190069361Y-102833242D01*
X190069360Y-102833239D01*
X190068281Y-102828096D01*
X190061291Y-102810395D01*
X190011277Y-102683754D01*
X189980980Y-102607037D01*
X189935203Y-102531598D01*
X189860408Y-102408341D01*
X189857681Y-102403847D01*
X189815414Y-102355138D01*
X195686758Y-102355138D01*
X195687578Y-102362566D01*
X195687578Y-102362568D01*
X195700814Y-102482459D01*
X195704035Y-102511633D01*
X195758143Y-102659490D01*
X195845958Y-102790172D01*
X195868183Y-102810395D01*
X195956878Y-102891102D01*
X195956882Y-102891105D01*
X195962410Y-102896135D01*
X195968980Y-102899702D01*
X195968981Y-102899703D01*
X196094208Y-102967696D01*
X196100776Y-102971262D01*
X196203031Y-102998088D01*
X196245841Y-103009319D01*
X196245843Y-103009319D01*
X196253069Y-103011215D01*
X196330127Y-103012425D01*
X196403025Y-103013571D01*
X196403028Y-103013571D01*
X196410495Y-103013688D01*
X196417776Y-103012020D01*
X196417780Y-103012020D01*
X196556677Y-102980208D01*
X196556678Y-102980208D01*
X196563968Y-102978538D01*
X196668981Y-102925722D01*
X196724697Y-102912500D01*
X197485058Y-102912500D01*
X197544226Y-102927527D01*
X197624776Y-102971262D01*
X197727031Y-102998088D01*
X197769841Y-103009319D01*
X197769843Y-103009319D01*
X197777069Y-103011215D01*
X197854127Y-103012425D01*
X197927025Y-103013571D01*
X197927028Y-103013571D01*
X197934495Y-103013688D01*
X197941776Y-103012020D01*
X197941780Y-103012020D01*
X198080681Y-102980207D01*
X198087968Y-102978538D01*
X198228625Y-102907795D01*
X198234306Y-102902943D01*
X198234309Y-102902941D01*
X198342666Y-102810395D01*
X198342667Y-102810394D01*
X198348348Y-102805542D01*
X198359393Y-102790172D01*
X198379798Y-102761775D01*
X198440224Y-102677683D01*
X198498950Y-102531598D01*
X198500793Y-102518649D01*
X198520562Y-102379744D01*
X198520562Y-102379740D01*
X198521134Y-102375723D01*
X198521278Y-102362000D01*
X198513853Y-102300645D01*
X198503262Y-102213119D01*
X198503261Y-102213115D01*
X198502363Y-102205694D01*
X198453721Y-102076966D01*
X198449354Y-102065408D01*
X198449352Y-102065405D01*
X198446710Y-102058412D01*
X198409215Y-102003857D01*
X198361768Y-101934821D01*
X198361765Y-101934818D01*
X198357531Y-101928657D01*
X198297270Y-101874966D01*
X198245559Y-101828893D01*
X198245558Y-101828892D01*
X198239976Y-101823919D01*
X198100831Y-101750245D01*
X197948128Y-101711889D01*
X197866329Y-101711461D01*
X197798158Y-101711104D01*
X197798157Y-101711104D01*
X197790684Y-101711065D01*
X197783421Y-101712809D01*
X197783418Y-101712809D01*
X197714136Y-101729442D01*
X197637588Y-101747820D01*
X197572418Y-101781457D01*
X197540968Y-101797689D01*
X197484096Y-101811500D01*
X196723324Y-101811500D01*
X196665301Y-101797087D01*
X196583443Y-101753745D01*
X196583437Y-101753743D01*
X196576831Y-101750245D01*
X196424128Y-101711889D01*
X196342329Y-101711461D01*
X196274158Y-101711104D01*
X196274157Y-101711104D01*
X196266684Y-101711065D01*
X196259421Y-101712809D01*
X196259418Y-101712809D01*
X196190136Y-101729442D01*
X196113588Y-101747820D01*
X195973679Y-101820032D01*
X195968048Y-101824945D01*
X195968047Y-101824945D01*
X195959407Y-101832482D01*
X195855034Y-101923533D01*
X195764501Y-102052348D01*
X195707309Y-102199039D01*
X195686758Y-102355138D01*
X189815414Y-102355138D01*
X189701910Y-102224336D01*
X189518120Y-102073638D01*
X189503662Y-102065408D01*
X189316125Y-101958655D01*
X189316120Y-101958653D01*
X189311567Y-101956061D01*
X189088156Y-101874966D01*
X188854275Y-101832674D01*
X188829381Y-101831500D01*
X188662320Y-101831500D01*
X188659704Y-101831722D01*
X188659703Y-101831722D01*
X188648484Y-101832674D01*
X188485177Y-101846531D01*
X188255126Y-101906240D01*
X188038424Y-102003857D01*
X187841268Y-102136591D01*
X187669295Y-102300645D01*
X187527421Y-102491330D01*
X187525042Y-102496008D01*
X187525042Y-102496009D01*
X187432675Y-102677683D01*
X187419705Y-102703193D01*
X187418146Y-102708213D01*
X187418145Y-102708216D01*
X187387925Y-102805542D01*
X187349225Y-102930176D01*
X187348534Y-102935386D01*
X187348534Y-102935388D01*
X187320804Y-103144606D01*
X187317996Y-103165789D01*
X184960501Y-103165789D01*
X184960152Y-103158385D01*
X184961253Y-103141140D01*
X184961253Y-103134681D01*
X184963136Y-103124000D01*
X184960384Y-103108391D01*
X184958500Y-103086861D01*
X184958500Y-98799138D01*
X201528758Y-98799138D01*
X201529578Y-98806566D01*
X201529578Y-98806568D01*
X201531474Y-98823744D01*
X201546035Y-98955633D01*
X201600143Y-99103490D01*
X201687958Y-99234172D01*
X201710183Y-99254395D01*
X201798878Y-99335102D01*
X201798882Y-99335105D01*
X201804410Y-99340135D01*
X201810980Y-99343702D01*
X201810981Y-99343703D01*
X201936208Y-99411696D01*
X201942776Y-99415262D01*
X202045031Y-99442088D01*
X202087841Y-99453319D01*
X202087843Y-99453319D01*
X202095069Y-99455215D01*
X202172127Y-99456425D01*
X202245025Y-99457571D01*
X202245028Y-99457571D01*
X202252495Y-99457688D01*
X202259776Y-99456020D01*
X202259780Y-99456020D01*
X202398677Y-99424208D01*
X202398678Y-99424208D01*
X202405968Y-99422538D01*
X202510981Y-99369722D01*
X202566697Y-99356500D01*
X203835058Y-99356500D01*
X203894226Y-99371527D01*
X203974776Y-99415262D01*
X204077031Y-99442088D01*
X204119841Y-99453319D01*
X204119843Y-99453319D01*
X204127069Y-99455215D01*
X204204127Y-99456425D01*
X204277025Y-99457571D01*
X204277028Y-99457571D01*
X204284495Y-99457688D01*
X204291776Y-99456020D01*
X204291780Y-99456020D01*
X204430681Y-99424207D01*
X204437968Y-99422538D01*
X204578625Y-99351795D01*
X204584306Y-99346943D01*
X204584309Y-99346941D01*
X204692666Y-99254395D01*
X204692667Y-99254394D01*
X204698348Y-99249542D01*
X204709393Y-99234172D01*
X204729798Y-99205775D01*
X204790224Y-99121683D01*
X204848950Y-98975598D01*
X204850793Y-98962649D01*
X204870562Y-98823744D01*
X204870562Y-98823740D01*
X204871134Y-98819723D01*
X204871278Y-98806000D01*
X204852363Y-98649694D01*
X204796710Y-98502412D01*
X204753356Y-98439332D01*
X204711768Y-98378821D01*
X204711765Y-98378818D01*
X204707531Y-98372657D01*
X204589976Y-98267919D01*
X204450831Y-98194245D01*
X204298128Y-98155889D01*
X204216329Y-98155461D01*
X204148158Y-98155104D01*
X204148157Y-98155104D01*
X204140684Y-98155065D01*
X204133421Y-98156809D01*
X204133418Y-98156809D01*
X204064136Y-98173442D01*
X203987588Y-98191820D01*
X203948558Y-98211965D01*
X203890968Y-98241689D01*
X203834096Y-98255500D01*
X202565324Y-98255500D01*
X202507301Y-98241087D01*
X202425443Y-98197745D01*
X202425437Y-98197743D01*
X202418831Y-98194245D01*
X202266128Y-98155889D01*
X202184329Y-98155461D01*
X202116158Y-98155104D01*
X202116157Y-98155104D01*
X202108684Y-98155065D01*
X202101421Y-98156809D01*
X202101418Y-98156809D01*
X202032136Y-98173442D01*
X201955588Y-98191820D01*
X201815679Y-98264032D01*
X201697034Y-98367533D01*
X201606501Y-98496348D01*
X201549309Y-98643039D01*
X201528758Y-98799138D01*
X184958500Y-98799138D01*
X184958500Y-94735138D01*
X217784758Y-94735138D01*
X217785578Y-94742566D01*
X217785578Y-94742568D01*
X217787474Y-94759744D01*
X217802035Y-94891633D01*
X217856143Y-95039490D01*
X217860315Y-95045698D01*
X217868420Y-95057760D01*
X217889500Y-95126922D01*
X217889500Y-95604414D01*
X217889391Y-95609606D01*
X217886790Y-95671665D01*
X217888721Y-95679896D01*
X217888721Y-95679900D01*
X217896747Y-95714118D01*
X217898876Y-95725603D01*
X217904794Y-95768803D01*
X217908151Y-95776560D01*
X217910834Y-95782760D01*
X217917758Y-95803696D01*
X217921232Y-95818507D01*
X217925305Y-95825915D01*
X217942238Y-95856717D01*
X217947376Y-95867206D01*
X217961337Y-95899468D01*
X217961340Y-95899473D01*
X217964695Y-95907226D01*
X217970012Y-95913792D01*
X217970013Y-95913794D01*
X217974267Y-95919047D01*
X217986557Y-95937336D01*
X217993893Y-95950679D01*
X218000897Y-95958793D01*
X218025509Y-95983405D01*
X218034194Y-95993050D01*
X218059614Y-96024441D01*
X218075084Y-96035435D01*
X218090934Y-96048830D01*
X219369499Y-97327395D01*
X219402984Y-97388718D01*
X219398000Y-97458410D01*
X219391099Y-97473674D01*
X219390801Y-97474229D01*
X219386501Y-97480348D01*
X219329309Y-97627039D01*
X219308758Y-97783138D01*
X219309578Y-97790566D01*
X219309578Y-97790568D01*
X219311474Y-97807744D01*
X219326035Y-97939633D01*
X219380143Y-98087490D01*
X219467958Y-98218172D01*
X219493803Y-98241689D01*
X219578878Y-98319102D01*
X219578882Y-98319105D01*
X219584410Y-98324135D01*
X219590980Y-98327702D01*
X219590981Y-98327703D01*
X219716208Y-98395696D01*
X219722776Y-98399262D01*
X219825031Y-98426088D01*
X219867841Y-98437319D01*
X219867843Y-98437319D01*
X219875069Y-98439215D01*
X219952127Y-98440425D01*
X220025025Y-98441571D01*
X220025028Y-98441571D01*
X220032495Y-98441688D01*
X220039776Y-98440020D01*
X220039780Y-98440020D01*
X220178681Y-98408207D01*
X220185968Y-98406538D01*
X220326625Y-98335795D01*
X220332306Y-98330943D01*
X220332309Y-98330941D01*
X220440666Y-98238395D01*
X220440667Y-98238394D01*
X220446348Y-98233542D01*
X220457393Y-98218172D01*
X220502739Y-98155065D01*
X220538224Y-98105683D01*
X220596950Y-97959598D01*
X220598793Y-97946649D01*
X220618562Y-97807744D01*
X220618562Y-97807740D01*
X220619134Y-97803723D01*
X220619278Y-97790000D01*
X220600363Y-97633694D01*
X220544710Y-97486412D01*
X220540476Y-97480251D01*
X220540473Y-97480246D01*
X220536310Y-97474190D01*
X220514500Y-97403954D01*
X220514500Y-97158328D01*
X220514609Y-97153135D01*
X220516856Y-97099525D01*
X220516856Y-97099524D01*
X220517210Y-97091077D01*
X220515279Y-97082846D01*
X220515279Y-97082842D01*
X220507253Y-97048624D01*
X220505123Y-97037135D01*
X220500353Y-97002311D01*
X220500353Y-97002310D01*
X220499206Y-96993939D01*
X220493166Y-96979981D01*
X220486242Y-96959046D01*
X220484699Y-96952465D01*
X220484697Y-96952460D01*
X220482768Y-96944235D01*
X220478695Y-96936826D01*
X220461760Y-96906020D01*
X220456621Y-96895530D01*
X220442664Y-96863279D01*
X220439305Y-96855516D01*
X220433981Y-96848941D01*
X220429732Y-96843693D01*
X220417436Y-96825396D01*
X220413237Y-96817757D01*
X220413234Y-96817752D01*
X220410106Y-96812063D01*
X220403102Y-96803949D01*
X220378495Y-96779342D01*
X220369810Y-96769697D01*
X220349705Y-96744870D01*
X220344386Y-96738301D01*
X220337495Y-96733404D01*
X220337493Y-96733402D01*
X220328914Y-96727305D01*
X220313063Y-96713910D01*
X219026819Y-95427666D01*
X218993334Y-95366343D01*
X218990500Y-95339985D01*
X218990500Y-95130630D01*
X219009382Y-95072020D01*
X219006261Y-95070304D01*
X219009864Y-95063750D01*
X219014224Y-95057683D01*
X219072950Y-94911598D01*
X219074793Y-94898649D01*
X219094562Y-94759744D01*
X219094562Y-94759740D01*
X219095134Y-94755723D01*
X219095278Y-94742000D01*
X219076363Y-94585694D01*
X219020710Y-94438412D01*
X219012337Y-94426229D01*
X218935768Y-94314821D01*
X218935765Y-94314818D01*
X218931531Y-94308657D01*
X218813976Y-94203919D01*
X218674831Y-94130245D01*
X218522128Y-94091889D01*
X218440329Y-94091461D01*
X218372158Y-94091104D01*
X218372157Y-94091104D01*
X218364684Y-94091065D01*
X218357421Y-94092809D01*
X218357418Y-94092809D01*
X218288136Y-94109442D01*
X218211588Y-94127820D01*
X218071679Y-94200032D01*
X217953034Y-94303533D01*
X217862501Y-94432348D01*
X217805309Y-94579039D01*
X217784758Y-94735138D01*
X184958500Y-94735138D01*
X184958500Y-92871806D01*
X215030563Y-92871806D01*
X215031112Y-92877839D01*
X215031112Y-92877843D01*
X215040395Y-92979840D01*
X215048790Y-93072089D01*
X215050501Y-93077902D01*
X215050501Y-93077903D01*
X215052944Y-93086203D01*
X215105572Y-93265018D01*
X215198746Y-93443243D01*
X215292919Y-93560370D01*
X215320137Y-93594222D01*
X215324763Y-93599976D01*
X215478823Y-93729248D01*
X215655058Y-93826134D01*
X215660840Y-93827968D01*
X215660842Y-93827969D01*
X215840976Y-93885111D01*
X215840978Y-93885111D01*
X215846755Y-93886944D01*
X215901287Y-93893061D01*
X215999815Y-93904113D01*
X215999821Y-93904113D01*
X216003268Y-93904500D01*
X216661606Y-93904500D01*
X216664621Y-93904204D01*
X216664629Y-93904204D01*
X216805115Y-93890429D01*
X216805117Y-93890429D01*
X216811151Y-93889837D01*
X217003679Y-93831710D01*
X217181249Y-93737294D01*
X217337099Y-93610186D01*
X217465292Y-93455227D01*
X217472203Y-93442446D01*
X217558059Y-93283658D01*
X217558060Y-93283656D01*
X217560945Y-93278320D01*
X217620415Y-93086203D01*
X217631594Y-92979840D01*
X218931711Y-92979840D01*
X218941667Y-93169801D01*
X218992181Y-93353193D01*
X219080898Y-93521460D01*
X219085229Y-93526585D01*
X219085231Y-93526588D01*
X219199345Y-93661624D01*
X219203678Y-93666751D01*
X219209012Y-93670829D01*
X219349456Y-93778207D01*
X219349459Y-93778209D01*
X219354793Y-93782287D01*
X219360882Y-93785126D01*
X219360883Y-93785127D01*
X219521109Y-93859841D01*
X219527193Y-93862678D01*
X219533738Y-93864141D01*
X219533741Y-93864142D01*
X219625890Y-93884740D01*
X219712834Y-93904174D01*
X219718665Y-93904500D01*
X220508517Y-93904500D01*
X220650109Y-93889118D01*
X220830396Y-93828445D01*
X220993447Y-93730474D01*
X221120649Y-93610186D01*
X221126781Y-93604387D01*
X221131658Y-93599775D01*
X221181396Y-93526588D01*
X221234804Y-93448000D01*
X221234806Y-93447997D01*
X221238578Y-93442446D01*
X221241070Y-93436216D01*
X221241072Y-93436212D01*
X221306727Y-93272062D01*
X221309221Y-93265827D01*
X221310318Y-93259202D01*
X221339192Y-93084788D01*
X221339192Y-93084786D01*
X221340289Y-93078160D01*
X221330333Y-92888199D01*
X221279819Y-92704807D01*
X221191102Y-92536540D01*
X221147947Y-92485472D01*
X221072655Y-92396376D01*
X221072653Y-92396374D01*
X221068322Y-92391249D01*
X220984976Y-92327526D01*
X220922544Y-92279793D01*
X220922541Y-92279791D01*
X220917207Y-92275713D01*
X220844367Y-92241747D01*
X220750891Y-92198159D01*
X220744807Y-92195322D01*
X220738262Y-92193859D01*
X220738259Y-92193858D01*
X220626522Y-92168882D01*
X220559166Y-92153826D01*
X220553335Y-92153500D01*
X219763483Y-92153500D01*
X219621891Y-92168882D01*
X219441604Y-92229555D01*
X219278553Y-92327526D01*
X219140342Y-92458225D01*
X219136569Y-92463777D01*
X219136568Y-92463778D01*
X219083083Y-92542480D01*
X219033422Y-92615554D01*
X219030930Y-92621784D01*
X219030928Y-92621788D01*
X219010926Y-92671797D01*
X218962779Y-92792173D01*
X218961683Y-92798796D01*
X218961682Y-92798798D01*
X218947954Y-92881726D01*
X218931711Y-92979840D01*
X217631594Y-92979840D01*
X217641437Y-92886194D01*
X217633484Y-92798798D01*
X217625519Y-92711280D01*
X217623210Y-92685911D01*
X217566428Y-92492982D01*
X217563617Y-92487606D01*
X217561346Y-92481984D01*
X217562705Y-92481435D01*
X217550512Y-92420039D01*
X217576113Y-92355029D01*
X217625618Y-92319100D01*
X217625029Y-92317928D01*
X217769820Y-92245106D01*
X217769822Y-92245105D01*
X217776498Y-92241747D01*
X217782180Y-92236894D01*
X217782183Y-92236892D01*
X217899741Y-92136487D01*
X217905423Y-92131634D01*
X218004361Y-91993947D01*
X218067601Y-91836634D01*
X218091490Y-91668778D01*
X218091645Y-91654000D01*
X218071276Y-91485680D01*
X218011345Y-91327077D01*
X218002657Y-91314436D01*
X217919549Y-91193513D01*
X217919546Y-91193510D01*
X217915312Y-91187349D01*
X217788721Y-91074560D01*
X217774347Y-91066949D01*
X217645489Y-90998723D01*
X217638881Y-90995224D01*
X217474441Y-90953919D01*
X217388248Y-90953468D01*
X217312368Y-90953070D01*
X217312367Y-90953070D01*
X217304895Y-90953031D01*
X217283235Y-90958231D01*
X217147295Y-90990868D01*
X217147293Y-90990869D01*
X217140032Y-90992612D01*
X217133399Y-90996035D01*
X217133395Y-90996037D01*
X217066465Y-91030583D01*
X216989369Y-91070375D01*
X216861604Y-91181831D01*
X216764113Y-91320547D01*
X216702524Y-91478513D01*
X216680394Y-91646611D01*
X216681214Y-91654039D01*
X216681214Y-91654041D01*
X216688043Y-91715893D01*
X216675834Y-91784687D01*
X216628370Y-91835960D01*
X216564792Y-91853500D01*
X216010394Y-91853500D01*
X216007379Y-91853796D01*
X216007371Y-91853796D01*
X215866885Y-91867571D01*
X215866883Y-91867571D01*
X215860849Y-91868163D01*
X215668321Y-91926290D01*
X215490751Y-92020706D01*
X215334901Y-92147814D01*
X215206708Y-92302773D01*
X215203822Y-92308110D01*
X215203821Y-92308112D01*
X215122656Y-92458225D01*
X215111055Y-92479680D01*
X215051585Y-92671797D01*
X215030563Y-92871806D01*
X184958500Y-92871806D01*
X184958500Y-86884862D01*
X186080497Y-86884862D01*
X186110134Y-87057340D01*
X186112957Y-87063973D01*
X186112957Y-87063975D01*
X186141746Y-87131634D01*
X186178654Y-87218373D01*
X186182921Y-87224171D01*
X186182922Y-87224173D01*
X186253148Y-87319598D01*
X186282383Y-87359324D01*
X186287874Y-87363989D01*
X186287875Y-87363990D01*
X186410261Y-87467965D01*
X186410264Y-87467967D01*
X186415755Y-87472632D01*
X186422172Y-87475909D01*
X186422174Y-87475910D01*
X186488616Y-87509837D01*
X186571616Y-87552219D01*
X186578612Y-87553931D01*
X186578615Y-87553932D01*
X186649763Y-87571341D01*
X186741606Y-87593815D01*
X186747114Y-87594157D01*
X186747116Y-87594157D01*
X186750744Y-87594382D01*
X186750748Y-87594382D01*
X186752648Y-87594500D01*
X186878822Y-87594500D01*
X187008828Y-87579343D01*
X187015595Y-87576887D01*
X187015598Y-87576886D01*
X187166557Y-87522090D01*
X187166558Y-87522089D01*
X187173331Y-87519631D01*
X187319685Y-87423677D01*
X187324637Y-87418449D01*
X187324640Y-87418447D01*
X187435087Y-87301857D01*
X187435089Y-87301855D01*
X187440040Y-87296628D01*
X187443656Y-87290403D01*
X187443658Y-87290400D01*
X187524322Y-87151525D01*
X187527939Y-87145298D01*
X187578667Y-86977807D01*
X187587884Y-86829237D01*
X187589057Y-86810332D01*
X187589057Y-86810329D01*
X187589503Y-86803138D01*
X187559866Y-86630660D01*
X187491346Y-86469627D01*
X187479929Y-86454113D01*
X187391888Y-86334479D01*
X187391886Y-86334477D01*
X187387617Y-86328676D01*
X187378478Y-86320912D01*
X187259739Y-86220035D01*
X187259736Y-86220033D01*
X187254245Y-86215368D01*
X187247828Y-86212091D01*
X187247826Y-86212090D01*
X187157388Y-86165910D01*
X187098384Y-86135781D01*
X187091388Y-86134069D01*
X187091385Y-86134068D01*
X187003969Y-86112678D01*
X186928394Y-86094185D01*
X186922886Y-86093843D01*
X186922884Y-86093843D01*
X186919256Y-86093618D01*
X186919252Y-86093618D01*
X186917352Y-86093500D01*
X186791178Y-86093500D01*
X186661172Y-86108657D01*
X186654405Y-86111113D01*
X186654402Y-86111114D01*
X186534877Y-86154500D01*
X186496669Y-86168369D01*
X186350315Y-86264323D01*
X186345363Y-86269551D01*
X186345360Y-86269553D01*
X186234913Y-86386143D01*
X186229960Y-86391372D01*
X186226344Y-86397597D01*
X186226342Y-86397600D01*
X186180656Y-86476255D01*
X186142061Y-86542702D01*
X186091333Y-86710193D01*
X186080497Y-86884862D01*
X184958500Y-86884862D01*
X184958500Y-85421806D01*
X215030563Y-85421806D01*
X215031112Y-85427839D01*
X215031112Y-85427843D01*
X215039119Y-85515827D01*
X215048790Y-85622089D01*
X215105572Y-85815018D01*
X215198746Y-85993243D01*
X215279906Y-86094185D01*
X215311973Y-86134068D01*
X215324763Y-86149976D01*
X215478823Y-86279248D01*
X215655058Y-86376134D01*
X215660840Y-86377968D01*
X215660842Y-86377969D01*
X215840976Y-86435111D01*
X215840978Y-86435111D01*
X215846755Y-86436944D01*
X215901287Y-86443061D01*
X215999815Y-86454113D01*
X215999821Y-86454113D01*
X216003268Y-86454500D01*
X216564291Y-86454500D01*
X216631330Y-86474185D01*
X216677085Y-86526989D01*
X216687230Y-86594685D01*
X216680394Y-86646611D01*
X216681214Y-86654039D01*
X216681214Y-86654041D01*
X216682841Y-86668778D01*
X216698999Y-86815135D01*
X216701565Y-86822147D01*
X216701566Y-86822151D01*
X216727115Y-86891966D01*
X216757266Y-86974356D01*
X216761433Y-86980558D01*
X216761435Y-86980561D01*
X216817487Y-87063975D01*
X216851830Y-87115083D01*
X216857360Y-87120115D01*
X216971702Y-87224159D01*
X216971706Y-87224162D01*
X216977233Y-87229191D01*
X217126235Y-87310092D01*
X217221585Y-87335107D01*
X217283005Y-87351220D01*
X217283007Y-87351220D01*
X217290233Y-87353116D01*
X217373178Y-87354419D01*
X217452290Y-87355662D01*
X217452293Y-87355662D01*
X217459760Y-87355779D01*
X217582209Y-87327735D01*
X217617738Y-87319598D01*
X217617739Y-87319598D01*
X217625029Y-87317928D01*
X217700111Y-87280166D01*
X217769820Y-87245106D01*
X217769822Y-87245105D01*
X217776498Y-87241747D01*
X217782180Y-87236894D01*
X217782183Y-87236892D01*
X217899741Y-87136487D01*
X217905423Y-87131634D01*
X218004361Y-86993947D01*
X218067601Y-86836634D01*
X218070661Y-86815135D01*
X218090918Y-86672800D01*
X218090918Y-86672794D01*
X218091490Y-86668778D01*
X218091645Y-86654000D01*
X218089854Y-86639199D01*
X218072175Y-86493105D01*
X218072174Y-86493101D01*
X218071276Y-86485680D01*
X218052168Y-86435111D01*
X218013989Y-86334073D01*
X218013987Y-86334070D01*
X218011345Y-86327077D01*
X217978473Y-86279248D01*
X217919549Y-86193513D01*
X217919546Y-86193510D01*
X217915312Y-86187349D01*
X217829748Y-86111114D01*
X217794303Y-86079533D01*
X217794301Y-86079532D01*
X217788721Y-86074560D01*
X217701176Y-86028207D01*
X217645484Y-85998720D01*
X217645483Y-85998720D01*
X217638881Y-85995224D01*
X217631636Y-85993404D01*
X217629919Y-85992745D01*
X217574387Y-85950343D01*
X217550595Y-85884648D01*
X217559788Y-85830459D01*
X217560945Y-85828320D01*
X217620415Y-85636203D01*
X217641437Y-85436194D01*
X217640535Y-85426274D01*
X217623759Y-85241946D01*
X217623210Y-85235911D01*
X217621423Y-85229840D01*
X218931711Y-85229840D01*
X218941667Y-85419801D01*
X218992181Y-85603193D01*
X219080898Y-85771460D01*
X219085229Y-85776585D01*
X219085231Y-85776588D01*
X219176549Y-85884648D01*
X219203678Y-85916751D01*
X219209012Y-85920829D01*
X219349456Y-86028207D01*
X219349459Y-86028209D01*
X219354793Y-86032287D01*
X219360882Y-86035126D01*
X219360883Y-86035127D01*
X219487534Y-86094185D01*
X219527193Y-86112678D01*
X219533738Y-86114141D01*
X219533741Y-86114142D01*
X219622886Y-86134068D01*
X219712834Y-86154174D01*
X219718665Y-86154500D01*
X220508517Y-86154500D01*
X220650109Y-86139118D01*
X220830396Y-86078445D01*
X220993447Y-85980474D01*
X221131658Y-85849775D01*
X221146239Y-85828320D01*
X221234804Y-85698000D01*
X221234806Y-85697997D01*
X221238578Y-85692446D01*
X221241070Y-85686216D01*
X221241072Y-85686212D01*
X221306727Y-85522062D01*
X221309221Y-85515827D01*
X221323787Y-85427843D01*
X221339192Y-85334788D01*
X221339192Y-85334786D01*
X221340289Y-85328160D01*
X221330333Y-85138199D01*
X221279819Y-84954807D01*
X221191102Y-84786540D01*
X221121457Y-84704125D01*
X221072655Y-84646376D01*
X221072653Y-84646374D01*
X221068322Y-84641249D01*
X221007177Y-84594500D01*
X220922544Y-84529793D01*
X220922541Y-84529791D01*
X220917207Y-84525713D01*
X220909438Y-84522090D01*
X220750891Y-84448159D01*
X220744807Y-84445322D01*
X220738262Y-84443859D01*
X220738259Y-84443858D01*
X220624576Y-84418447D01*
X220559166Y-84403826D01*
X220553335Y-84403500D01*
X219763483Y-84403500D01*
X219621891Y-84418882D01*
X219441604Y-84479555D01*
X219278553Y-84577526D01*
X219273676Y-84582138D01*
X219146406Y-84702491D01*
X219140342Y-84708225D01*
X219136569Y-84713777D01*
X219136568Y-84713778D01*
X219038480Y-84858112D01*
X219033422Y-84865554D01*
X219030930Y-84871784D01*
X219030928Y-84871788D01*
X219000099Y-84948867D01*
X218962779Y-85042173D01*
X218961683Y-85048796D01*
X218961682Y-85048798D01*
X218933043Y-85221797D01*
X218931711Y-85229840D01*
X217621423Y-85229840D01*
X217619473Y-85223212D01*
X217568141Y-85048802D01*
X217568141Y-85048801D01*
X217566428Y-85042982D01*
X217473254Y-84864757D01*
X217379081Y-84747630D01*
X217351037Y-84712750D01*
X217351036Y-84712749D01*
X217347237Y-84708024D01*
X217193177Y-84578752D01*
X217016942Y-84481866D01*
X217011160Y-84480032D01*
X217011158Y-84480031D01*
X216831024Y-84422889D01*
X216831022Y-84422889D01*
X216825245Y-84421056D01*
X216770713Y-84414939D01*
X216672185Y-84403887D01*
X216672179Y-84403887D01*
X216668732Y-84403500D01*
X216010394Y-84403500D01*
X216007379Y-84403796D01*
X216007371Y-84403796D01*
X215866885Y-84417571D01*
X215866883Y-84417571D01*
X215860849Y-84418163D01*
X215668321Y-84476290D01*
X215662970Y-84479135D01*
X215662968Y-84479136D01*
X215582184Y-84522090D01*
X215490751Y-84570706D01*
X215334901Y-84697814D01*
X215206708Y-84852773D01*
X215203822Y-84858110D01*
X215203821Y-84858112D01*
X215148039Y-84961280D01*
X215111055Y-85029680D01*
X215051585Y-85221797D01*
X215030563Y-85421806D01*
X184958500Y-85421806D01*
X184958500Y-83884862D01*
X186080497Y-83884862D01*
X186110134Y-84057340D01*
X186178654Y-84218373D01*
X186182921Y-84224171D01*
X186182922Y-84224173D01*
X186240092Y-84301857D01*
X186282383Y-84359324D01*
X186287874Y-84363989D01*
X186287875Y-84363990D01*
X186410261Y-84467965D01*
X186410264Y-84467967D01*
X186415755Y-84472632D01*
X186422172Y-84475909D01*
X186422174Y-84475910D01*
X186488616Y-84509837D01*
X186571616Y-84552219D01*
X186578612Y-84553931D01*
X186578615Y-84553932D01*
X186647167Y-84570706D01*
X186741606Y-84593815D01*
X186747114Y-84594157D01*
X186747116Y-84594157D01*
X186750744Y-84594382D01*
X186750748Y-84594382D01*
X186752648Y-84594500D01*
X186878822Y-84594500D01*
X187008828Y-84579343D01*
X187015595Y-84576887D01*
X187015598Y-84576886D01*
X187166557Y-84522090D01*
X187166558Y-84522089D01*
X187173331Y-84519631D01*
X187319685Y-84423677D01*
X187324637Y-84418449D01*
X187324640Y-84418447D01*
X187435087Y-84301857D01*
X187435089Y-84301855D01*
X187440040Y-84296628D01*
X187443656Y-84290403D01*
X187443658Y-84290400D01*
X187524322Y-84151525D01*
X187527939Y-84145298D01*
X187578667Y-83977807D01*
X187589503Y-83803138D01*
X187559866Y-83630660D01*
X187491346Y-83469627D01*
X187438340Y-83397600D01*
X187391888Y-83334479D01*
X187391886Y-83334477D01*
X187387617Y-83328676D01*
X187307216Y-83260370D01*
X187259739Y-83220035D01*
X187259736Y-83220033D01*
X187254245Y-83215368D01*
X187247828Y-83212091D01*
X187247826Y-83212090D01*
X187157388Y-83165910D01*
X187098384Y-83135781D01*
X187091388Y-83134069D01*
X187091385Y-83134068D01*
X187020237Y-83116659D01*
X186928394Y-83094185D01*
X186922886Y-83093843D01*
X186922884Y-83093843D01*
X186919256Y-83093618D01*
X186919252Y-83093618D01*
X186917352Y-83093500D01*
X186791178Y-83093500D01*
X186661172Y-83108657D01*
X186654405Y-83111113D01*
X186654402Y-83111114D01*
X186503443Y-83165910D01*
X186496669Y-83168369D01*
X186350315Y-83264323D01*
X186345363Y-83269551D01*
X186345360Y-83269553D01*
X186283855Y-83334479D01*
X186229960Y-83391372D01*
X186226344Y-83397597D01*
X186226342Y-83397600D01*
X186187875Y-83463827D01*
X186142061Y-83542702D01*
X186091333Y-83710193D01*
X186080497Y-83884862D01*
X184958500Y-83884862D01*
X184958500Y-78260138D01*
X184960384Y-78238605D01*
X184961252Y-78233682D01*
X184963136Y-78222999D01*
X184961252Y-78212315D01*
X184961252Y-78206126D01*
X184960124Y-78188466D01*
X184961191Y-78165789D01*
X187317996Y-78165789D01*
X187326913Y-78403295D01*
X187327990Y-78408430D01*
X187327991Y-78408435D01*
X187374639Y-78630758D01*
X187375719Y-78635904D01*
X187463020Y-78856963D01*
X187465741Y-78861447D01*
X187465743Y-78861451D01*
X187533233Y-78972670D01*
X187586319Y-79060153D01*
X187742090Y-79239664D01*
X187925880Y-79390362D01*
X187930441Y-79392958D01*
X187930442Y-79392959D01*
X188127875Y-79505345D01*
X188127880Y-79505347D01*
X188132433Y-79507939D01*
X188355844Y-79589034D01*
X188589725Y-79631326D01*
X188614619Y-79632500D01*
X188781680Y-79632500D01*
X188784296Y-79632278D01*
X188784297Y-79632278D01*
X188953590Y-79617913D01*
X188958823Y-79617469D01*
X189188874Y-79557760D01*
X189405576Y-79460143D01*
X189602732Y-79327409D01*
X189774705Y-79163355D01*
X189916579Y-78972670D01*
X189918958Y-78967991D01*
X190021913Y-78765493D01*
X190021915Y-78765488D01*
X190024295Y-78760807D01*
X190094775Y-78533824D01*
X190126004Y-78298211D01*
X190121032Y-78165789D01*
X217317996Y-78165789D01*
X217326913Y-78403295D01*
X217327990Y-78408430D01*
X217327991Y-78408435D01*
X217374639Y-78630758D01*
X217375719Y-78635904D01*
X217463020Y-78856963D01*
X217465741Y-78861447D01*
X217465743Y-78861451D01*
X217533233Y-78972670D01*
X217586319Y-79060153D01*
X217742090Y-79239664D01*
X217925880Y-79390362D01*
X217930441Y-79392958D01*
X217930442Y-79392959D01*
X218127875Y-79505345D01*
X218127880Y-79505347D01*
X218132433Y-79507939D01*
X218355844Y-79589034D01*
X218589725Y-79631326D01*
X218614619Y-79632500D01*
X218781680Y-79632500D01*
X218784296Y-79632278D01*
X218784297Y-79632278D01*
X218953590Y-79617913D01*
X218958823Y-79617469D01*
X219188874Y-79557760D01*
X219405576Y-79460143D01*
X219602732Y-79327409D01*
X219774705Y-79163355D01*
X219916579Y-78972670D01*
X219918958Y-78967991D01*
X220021913Y-78765493D01*
X220021915Y-78765488D01*
X220024295Y-78760807D01*
X220094775Y-78533824D01*
X220126004Y-78298211D01*
X220117087Y-78060705D01*
X220089700Y-77930176D01*
X220069361Y-77833242D01*
X220069360Y-77833239D01*
X220068281Y-77828096D01*
X220049336Y-77780123D01*
X220017103Y-77698507D01*
X219980980Y-77607037D01*
X219978216Y-77602481D01*
X219860408Y-77408341D01*
X219857681Y-77403847D01*
X219701910Y-77224336D01*
X219569522Y-77115785D01*
X219522179Y-77076966D01*
X219522178Y-77076965D01*
X219518120Y-77073638D01*
X219452618Y-77036352D01*
X219316125Y-76958655D01*
X219316120Y-76958653D01*
X219311567Y-76956061D01*
X219088156Y-76874966D01*
X218854275Y-76832674D01*
X218829381Y-76831500D01*
X218662320Y-76831500D01*
X218659704Y-76831722D01*
X218659703Y-76831722D01*
X218565799Y-76839690D01*
X218485177Y-76846531D01*
X218255126Y-76906240D01*
X218038424Y-77003857D01*
X217841268Y-77136591D01*
X217669295Y-77300645D01*
X217527421Y-77491330D01*
X217525042Y-77496008D01*
X217525042Y-77496009D01*
X217468182Y-77607846D01*
X217419705Y-77703193D01*
X217418146Y-77708213D01*
X217418145Y-77708216D01*
X217395442Y-77781333D01*
X217349225Y-77930176D01*
X217317996Y-78165789D01*
X190121032Y-78165789D01*
X190117087Y-78060705D01*
X190089700Y-77930176D01*
X190069361Y-77833242D01*
X190069360Y-77833239D01*
X190068281Y-77828096D01*
X190049336Y-77780123D01*
X190017103Y-77698507D01*
X189980980Y-77607037D01*
X189978216Y-77602481D01*
X189860408Y-77408341D01*
X189857681Y-77403847D01*
X189701910Y-77224336D01*
X189569522Y-77115785D01*
X189522179Y-77076966D01*
X189522178Y-77076965D01*
X189518120Y-77073638D01*
X189452618Y-77036352D01*
X189316125Y-76958655D01*
X189316120Y-76958653D01*
X189311567Y-76956061D01*
X189088156Y-76874966D01*
X188854275Y-76832674D01*
X188829381Y-76831500D01*
X188662320Y-76831500D01*
X188659704Y-76831722D01*
X188659703Y-76831722D01*
X188565799Y-76839690D01*
X188485177Y-76846531D01*
X188255126Y-76906240D01*
X188038424Y-77003857D01*
X187841268Y-77136591D01*
X187669295Y-77300645D01*
X187527421Y-77491330D01*
X187525042Y-77496008D01*
X187525042Y-77496009D01*
X187468182Y-77607846D01*
X187419705Y-77703193D01*
X187418146Y-77708213D01*
X187418145Y-77708216D01*
X187395442Y-77781333D01*
X187349225Y-77930176D01*
X187317996Y-78165789D01*
X184961191Y-78165789D01*
X184961436Y-78160588D01*
X184974846Y-77875524D01*
X184975940Y-77863922D01*
X185024013Y-77525294D01*
X185026191Y-77513846D01*
X185105843Y-77181215D01*
X185109087Y-77170022D01*
X185219607Y-76846359D01*
X185223886Y-76835520D01*
X185277553Y-76716326D01*
X192210667Y-76716326D01*
X192263168Y-76912264D01*
X192266857Y-76922397D01*
X192362110Y-77126667D01*
X192367508Y-77136017D01*
X192496784Y-77320643D01*
X192503719Y-77328907D01*
X192663091Y-77488279D01*
X192671357Y-77495215D01*
X192855992Y-77624498D01*
X192865324Y-77629886D01*
X193069603Y-77725143D01*
X193079736Y-77728832D01*
X193270779Y-77780022D01*
X193284653Y-77779691D01*
X193288000Y-77771875D01*
X193288000Y-77766806D01*
X193788000Y-77766806D01*
X193791910Y-77780123D01*
X193800326Y-77781333D01*
X193996264Y-77728832D01*
X194006397Y-77725143D01*
X194210676Y-77629886D01*
X194220008Y-77624498D01*
X194404643Y-77495215D01*
X194412909Y-77488279D01*
X194572281Y-77328907D01*
X194579216Y-77320643D01*
X194708492Y-77136017D01*
X194713890Y-77126667D01*
X194805656Y-76929876D01*
X194851829Y-76877437D01*
X194919022Y-76858285D01*
X194985903Y-76878501D01*
X195030648Y-76930368D01*
X195077369Y-77031714D01*
X195080647Y-77036352D01*
X195183026Y-77181215D01*
X195199405Y-77204391D01*
X195350865Y-77351937D01*
X195355588Y-77355093D01*
X195355592Y-77355096D01*
X195422609Y-77399875D01*
X195526677Y-77469411D01*
X195720953Y-77552878D01*
X195756277Y-77560871D01*
X195921638Y-77598289D01*
X195921642Y-77598290D01*
X195927186Y-77599544D01*
X196053315Y-77604500D01*
X196132789Y-77607623D01*
X196132791Y-77607623D01*
X196138470Y-77607846D01*
X196144090Y-77607031D01*
X196144092Y-77607031D01*
X196342103Y-77578320D01*
X196342104Y-77578320D01*
X196347730Y-77577504D01*
X196366588Y-77571103D01*
X196542565Y-77511367D01*
X196542568Y-77511366D01*
X196547955Y-77509537D01*
X196552916Y-77506759D01*
X196552922Y-77506756D01*
X196695099Y-77427132D01*
X196732442Y-77406219D01*
X196770165Y-77374846D01*
X196890645Y-77274644D01*
X196895012Y-77271012D01*
X196936602Y-77221005D01*
X197026584Y-77112813D01*
X197026585Y-77112811D01*
X197030219Y-77108442D01*
X197076080Y-77026552D01*
X197130756Y-76928922D01*
X197130759Y-76928916D01*
X197133537Y-76923955D01*
X197138819Y-76908397D01*
X197199675Y-76729118D01*
X197201504Y-76723730D01*
X197203954Y-76706831D01*
X197225820Y-76556033D01*
X197254921Y-76492512D01*
X197308225Y-76458346D01*
X197388974Y-76458346D01*
X197442347Y-76492736D01*
X197471296Y-76556327D01*
X197472271Y-76565707D01*
X197476796Y-76634749D01*
X197528845Y-76839690D01*
X197531219Y-76844841D01*
X197531221Y-76844845D01*
X197583688Y-76958655D01*
X197617369Y-77031714D01*
X197620647Y-77036352D01*
X197723026Y-77181215D01*
X197739405Y-77204391D01*
X197890865Y-77351937D01*
X197895588Y-77355093D01*
X197895592Y-77355096D01*
X197962609Y-77399875D01*
X198066677Y-77469411D01*
X198260953Y-77552878D01*
X198296277Y-77560871D01*
X198461638Y-77598289D01*
X198461642Y-77598290D01*
X198467186Y-77599544D01*
X198593315Y-77604500D01*
X198672789Y-77607623D01*
X198672791Y-77607623D01*
X198678470Y-77607846D01*
X198684090Y-77607031D01*
X198684092Y-77607031D01*
X198882103Y-77578320D01*
X198882104Y-77578320D01*
X198887730Y-77577504D01*
X198906588Y-77571103D01*
X199082565Y-77511367D01*
X199082568Y-77511366D01*
X199087955Y-77509537D01*
X199092916Y-77506759D01*
X199092922Y-77506756D01*
X199235099Y-77427132D01*
X199272442Y-77406219D01*
X199310165Y-77374846D01*
X199430645Y-77274644D01*
X199435012Y-77271012D01*
X199476602Y-77221005D01*
X199566584Y-77112813D01*
X199566585Y-77112811D01*
X199570219Y-77108442D01*
X199616080Y-77026552D01*
X199670756Y-76928922D01*
X199670759Y-76928916D01*
X199673537Y-76923955D01*
X199678819Y-76908397D01*
X199739675Y-76729118D01*
X199741504Y-76723730D01*
X199754406Y-76634749D01*
X199760783Y-76590769D01*
X199789884Y-76527248D01*
X199848707Y-76489543D01*
X199918577Y-76489627D01*
X199977310Y-76527471D01*
X200006259Y-76591061D01*
X200007500Y-76608562D01*
X200007500Y-77348646D01*
X200010618Y-77374846D01*
X200056061Y-77477153D01*
X200135287Y-77556241D01*
X200145758Y-77560870D01*
X200145759Y-77560871D01*
X200229147Y-77597737D01*
X200229149Y-77597738D01*
X200237673Y-77601506D01*
X200263354Y-77604500D01*
X202052646Y-77604500D01*
X202056300Y-77604065D01*
X202056302Y-77604065D01*
X202061266Y-77603474D01*
X202078846Y-77601382D01*
X202181153Y-77555939D01*
X202260241Y-77476713D01*
X202290178Y-77408998D01*
X202301737Y-77382853D01*
X202301738Y-77382851D01*
X202305506Y-77374327D01*
X202308500Y-77348646D01*
X202308500Y-76716326D01*
X205164667Y-76716326D01*
X205217168Y-76912264D01*
X205220857Y-76922397D01*
X205316110Y-77126667D01*
X205321508Y-77136017D01*
X205450784Y-77320643D01*
X205457719Y-77328907D01*
X205617091Y-77488279D01*
X205625357Y-77495215D01*
X205809992Y-77624498D01*
X205819324Y-77629886D01*
X206023603Y-77725143D01*
X206033736Y-77728832D01*
X206224779Y-77780022D01*
X206238653Y-77779691D01*
X206242000Y-77771875D01*
X206242000Y-77766806D01*
X206742000Y-77766806D01*
X206745910Y-77780123D01*
X206754326Y-77781333D01*
X206950264Y-77728832D01*
X206960397Y-77725143D01*
X207164676Y-77629886D01*
X207174008Y-77624498D01*
X207358643Y-77495215D01*
X207366909Y-77488279D01*
X207526281Y-77328907D01*
X207533216Y-77320643D01*
X207662492Y-77136017D01*
X207667890Y-77126667D01*
X207759656Y-76929876D01*
X207805829Y-76877437D01*
X207873022Y-76858285D01*
X207939903Y-76878501D01*
X207984648Y-76930368D01*
X208031369Y-77031714D01*
X208034647Y-77036352D01*
X208137026Y-77181215D01*
X208153405Y-77204391D01*
X208304865Y-77351937D01*
X208309588Y-77355093D01*
X208309592Y-77355096D01*
X208376609Y-77399875D01*
X208480677Y-77469411D01*
X208674953Y-77552878D01*
X208710277Y-77560871D01*
X208875638Y-77598289D01*
X208875642Y-77598290D01*
X208881186Y-77599544D01*
X209007315Y-77604500D01*
X209086789Y-77607623D01*
X209086791Y-77607623D01*
X209092470Y-77607846D01*
X209098090Y-77607031D01*
X209098092Y-77607031D01*
X209296103Y-77578320D01*
X209296104Y-77578320D01*
X209301730Y-77577504D01*
X209320588Y-77571103D01*
X209496565Y-77511367D01*
X209496568Y-77511366D01*
X209501955Y-77509537D01*
X209506916Y-77506759D01*
X209506922Y-77506756D01*
X209649099Y-77427132D01*
X209686442Y-77406219D01*
X209724165Y-77374846D01*
X209844645Y-77274644D01*
X209849012Y-77271012D01*
X209890602Y-77221005D01*
X209980584Y-77112813D01*
X209980585Y-77112811D01*
X209984219Y-77108442D01*
X210030080Y-77026552D01*
X210084756Y-76928922D01*
X210084759Y-76928916D01*
X210087537Y-76923955D01*
X210092819Y-76908397D01*
X210153675Y-76729118D01*
X210155504Y-76723730D01*
X210157954Y-76706831D01*
X210179820Y-76556033D01*
X210208921Y-76492512D01*
X210262225Y-76458346D01*
X210342974Y-76458346D01*
X210396347Y-76492736D01*
X210425296Y-76556327D01*
X210426271Y-76565707D01*
X210430796Y-76634749D01*
X210482845Y-76839690D01*
X210485219Y-76844841D01*
X210485221Y-76844845D01*
X210537688Y-76958655D01*
X210571369Y-77031714D01*
X210574647Y-77036352D01*
X210677026Y-77181215D01*
X210693405Y-77204391D01*
X210844865Y-77351937D01*
X210849588Y-77355093D01*
X210849592Y-77355096D01*
X210916609Y-77399875D01*
X211020677Y-77469411D01*
X211214953Y-77552878D01*
X211250277Y-77560871D01*
X211415638Y-77598289D01*
X211415642Y-77598290D01*
X211421186Y-77599544D01*
X211547315Y-77604500D01*
X211626789Y-77607623D01*
X211626791Y-77607623D01*
X211632470Y-77607846D01*
X211638090Y-77607031D01*
X211638092Y-77607031D01*
X211836103Y-77578320D01*
X211836104Y-77578320D01*
X211841730Y-77577504D01*
X211860588Y-77571103D01*
X212036565Y-77511367D01*
X212036568Y-77511366D01*
X212041955Y-77509537D01*
X212046916Y-77506759D01*
X212046922Y-77506756D01*
X212189099Y-77427132D01*
X212226442Y-77406219D01*
X212264165Y-77374846D01*
X212384645Y-77274644D01*
X212389012Y-77271012D01*
X212430602Y-77221005D01*
X212520584Y-77112813D01*
X212520585Y-77112811D01*
X212524219Y-77108442D01*
X212570080Y-77026552D01*
X212624756Y-76928922D01*
X212624759Y-76928916D01*
X212627537Y-76923955D01*
X212632819Y-76908397D01*
X212693675Y-76729118D01*
X212695504Y-76723730D01*
X212708406Y-76634749D01*
X212714783Y-76590769D01*
X212743884Y-76527248D01*
X212802707Y-76489543D01*
X212872577Y-76489627D01*
X212931310Y-76527471D01*
X212960259Y-76591061D01*
X212961500Y-76608562D01*
X212961500Y-77348646D01*
X212964618Y-77374846D01*
X213010061Y-77477153D01*
X213089287Y-77556241D01*
X213099758Y-77560870D01*
X213099759Y-77560871D01*
X213183147Y-77597737D01*
X213183149Y-77597738D01*
X213191673Y-77601506D01*
X213217354Y-77604500D01*
X215006646Y-77604500D01*
X215010300Y-77604065D01*
X215010302Y-77604065D01*
X215015266Y-77603474D01*
X215032846Y-77601382D01*
X215135153Y-77555939D01*
X215214241Y-77476713D01*
X215244178Y-77408998D01*
X215255737Y-77382853D01*
X215255738Y-77382851D01*
X215259506Y-77374327D01*
X215262500Y-77348646D01*
X215262500Y-75559354D01*
X215259382Y-75533154D01*
X215213939Y-75430847D01*
X215134713Y-75351759D01*
X215124242Y-75347130D01*
X215124241Y-75347129D01*
X215040853Y-75310263D01*
X215040851Y-75310262D01*
X215032327Y-75306494D01*
X215006646Y-75303500D01*
X213217354Y-75303500D01*
X213213700Y-75303935D01*
X213213698Y-75303935D01*
X213208734Y-75304526D01*
X213191154Y-75306618D01*
X213088847Y-75352061D01*
X213009759Y-75431287D01*
X213005130Y-75441758D01*
X213005129Y-75441759D01*
X212970876Y-75519238D01*
X212964494Y-75533673D01*
X212961500Y-75559354D01*
X212961500Y-76296727D01*
X212941815Y-76363766D01*
X212889011Y-76409521D01*
X212819853Y-76419465D01*
X212756297Y-76390440D01*
X212718523Y-76331662D01*
X212714020Y-76308073D01*
X212708601Y-76249101D01*
X212708601Y-76249100D01*
X212708081Y-76243440D01*
X212650686Y-76039931D01*
X212557165Y-75850290D01*
X212430651Y-75680867D01*
X212426481Y-75677012D01*
X212426478Y-75677009D01*
X212310667Y-75569955D01*
X212275381Y-75537337D01*
X212269574Y-75533673D01*
X212101363Y-75427539D01*
X212101361Y-75427538D01*
X212096554Y-75424505D01*
X211900160Y-75346152D01*
X211894579Y-75345042D01*
X211894576Y-75345041D01*
X211796468Y-75325527D01*
X211692775Y-75304901D01*
X211687088Y-75304827D01*
X211687083Y-75304826D01*
X211487034Y-75302207D01*
X211487029Y-75302207D01*
X211481346Y-75302133D01*
X211475742Y-75303096D01*
X211475741Y-75303096D01*
X211278550Y-75336979D01*
X211278547Y-75336980D01*
X211272953Y-75337941D01*
X211074575Y-75411127D01*
X211069697Y-75414029D01*
X211069695Y-75414030D01*
X210897740Y-75516332D01*
X210897737Y-75516334D01*
X210892856Y-75519238D01*
X210733881Y-75658655D01*
X210730362Y-75663119D01*
X210730359Y-75663122D01*
X210671731Y-75737492D01*
X210602976Y-75824708D01*
X210504523Y-76011836D01*
X210502837Y-76017267D01*
X210502835Y-76017271D01*
X210450202Y-76186779D01*
X210441820Y-76213773D01*
X210424851Y-76357140D01*
X210397425Y-76421398D01*
X210342974Y-76458346D01*
X210262225Y-76458346D01*
X210262667Y-76458063D01*
X210210057Y-76426081D01*
X210179453Y-76363271D01*
X210178232Y-76353909D01*
X210168601Y-76249100D01*
X210168081Y-76243440D01*
X210110686Y-76039931D01*
X210017165Y-75850290D01*
X209890651Y-75680867D01*
X209886481Y-75677012D01*
X209886478Y-75677009D01*
X209770667Y-75569955D01*
X209735381Y-75537337D01*
X209729574Y-75533673D01*
X209561363Y-75427539D01*
X209561361Y-75427538D01*
X209556554Y-75424505D01*
X209360160Y-75346152D01*
X209354579Y-75345042D01*
X209354576Y-75345041D01*
X209256468Y-75325527D01*
X209152775Y-75304901D01*
X209147088Y-75304827D01*
X209147083Y-75304826D01*
X208947034Y-75302207D01*
X208947029Y-75302207D01*
X208941346Y-75302133D01*
X208935742Y-75303096D01*
X208935741Y-75303096D01*
X208738550Y-75336979D01*
X208738547Y-75336980D01*
X208732953Y-75337941D01*
X208534575Y-75411127D01*
X208529697Y-75414029D01*
X208529695Y-75414030D01*
X208357740Y-75516332D01*
X208357737Y-75516334D01*
X208352856Y-75519238D01*
X208193881Y-75658655D01*
X208190362Y-75663119D01*
X208190359Y-75663122D01*
X208131731Y-75737492D01*
X208062976Y-75824708D01*
X208051914Y-75845733D01*
X207980685Y-75981117D01*
X207932050Y-76031281D01*
X207864015Y-76047187D01*
X207798181Y-76023786D01*
X207758565Y-75975786D01*
X207667890Y-75781333D01*
X207662492Y-75771983D01*
X207533216Y-75587357D01*
X207526281Y-75579093D01*
X207366909Y-75419721D01*
X207358643Y-75412785D01*
X207174008Y-75283502D01*
X207164676Y-75278114D01*
X206960397Y-75182857D01*
X206950264Y-75179168D01*
X206759221Y-75127978D01*
X206745347Y-75128309D01*
X206742000Y-75136125D01*
X206742000Y-77766806D01*
X206242000Y-77766806D01*
X206242000Y-76721830D01*
X206237596Y-76706831D01*
X206236226Y-76705644D01*
X206228668Y-76704000D01*
X205179194Y-76704000D01*
X205165877Y-76707910D01*
X205164667Y-76716326D01*
X202308500Y-76716326D01*
X202308500Y-76186779D01*
X205165978Y-76186779D01*
X205166309Y-76200653D01*
X205174125Y-76204000D01*
X206224170Y-76204000D01*
X206239169Y-76199596D01*
X206240356Y-76198226D01*
X206242000Y-76190668D01*
X206242000Y-75141194D01*
X206238090Y-75127877D01*
X206229674Y-75126667D01*
X206033736Y-75179168D01*
X206023603Y-75182857D01*
X205819333Y-75278110D01*
X205809983Y-75283508D01*
X205625357Y-75412784D01*
X205617093Y-75419719D01*
X205457719Y-75579093D01*
X205450784Y-75587357D01*
X205321508Y-75771983D01*
X205316110Y-75781333D01*
X205220857Y-75985603D01*
X205217168Y-75995736D01*
X205165978Y-76186779D01*
X202308500Y-76186779D01*
X202308500Y-75559354D01*
X202305382Y-75533154D01*
X202259939Y-75430847D01*
X202180713Y-75351759D01*
X202170242Y-75347130D01*
X202170241Y-75347129D01*
X202086853Y-75310263D01*
X202086851Y-75310262D01*
X202078327Y-75306494D01*
X202052646Y-75303500D01*
X200263354Y-75303500D01*
X200259700Y-75303935D01*
X200259698Y-75303935D01*
X200254734Y-75304526D01*
X200237154Y-75306618D01*
X200134847Y-75352061D01*
X200055759Y-75431287D01*
X200051130Y-75441758D01*
X200051129Y-75441759D01*
X200016876Y-75519238D01*
X200010494Y-75533673D01*
X200007500Y-75559354D01*
X200007500Y-76296727D01*
X199987815Y-76363766D01*
X199935011Y-76409521D01*
X199865853Y-76419465D01*
X199802297Y-76390440D01*
X199764523Y-76331662D01*
X199760020Y-76308073D01*
X199754601Y-76249101D01*
X199754601Y-76249100D01*
X199754081Y-76243440D01*
X199696686Y-76039931D01*
X199603165Y-75850290D01*
X199476651Y-75680867D01*
X199472481Y-75677012D01*
X199472478Y-75677009D01*
X199356667Y-75569955D01*
X199321381Y-75537337D01*
X199315574Y-75533673D01*
X199147363Y-75427539D01*
X199147361Y-75427538D01*
X199142554Y-75424505D01*
X198946160Y-75346152D01*
X198940579Y-75345042D01*
X198940576Y-75345041D01*
X198842468Y-75325527D01*
X198738775Y-75304901D01*
X198733088Y-75304827D01*
X198733083Y-75304826D01*
X198533034Y-75302207D01*
X198533029Y-75302207D01*
X198527346Y-75302133D01*
X198521742Y-75303096D01*
X198521741Y-75303096D01*
X198324550Y-75336979D01*
X198324547Y-75336980D01*
X198318953Y-75337941D01*
X198120575Y-75411127D01*
X198115697Y-75414029D01*
X198115695Y-75414030D01*
X197943740Y-75516332D01*
X197943737Y-75516334D01*
X197938856Y-75519238D01*
X197779881Y-75658655D01*
X197776362Y-75663119D01*
X197776359Y-75663122D01*
X197717731Y-75737492D01*
X197648976Y-75824708D01*
X197550523Y-76011836D01*
X197548837Y-76017267D01*
X197548835Y-76017271D01*
X197496202Y-76186779D01*
X197487820Y-76213773D01*
X197470851Y-76357140D01*
X197443425Y-76421398D01*
X197388974Y-76458346D01*
X197308225Y-76458346D01*
X197308667Y-76458063D01*
X197256057Y-76426081D01*
X197225453Y-76363271D01*
X197224232Y-76353909D01*
X197214601Y-76249100D01*
X197214081Y-76243440D01*
X197156686Y-76039931D01*
X197063165Y-75850290D01*
X196936651Y-75680867D01*
X196932481Y-75677012D01*
X196932478Y-75677009D01*
X196816667Y-75569955D01*
X196781381Y-75537337D01*
X196775574Y-75533673D01*
X196607363Y-75427539D01*
X196607361Y-75427538D01*
X196602554Y-75424505D01*
X196406160Y-75346152D01*
X196400579Y-75345042D01*
X196400576Y-75345041D01*
X196302468Y-75325527D01*
X196198775Y-75304901D01*
X196193088Y-75304827D01*
X196193083Y-75304826D01*
X195993034Y-75302207D01*
X195993029Y-75302207D01*
X195987346Y-75302133D01*
X195981742Y-75303096D01*
X195981741Y-75303096D01*
X195784550Y-75336979D01*
X195784547Y-75336980D01*
X195778953Y-75337941D01*
X195580575Y-75411127D01*
X195575697Y-75414029D01*
X195575695Y-75414030D01*
X195403740Y-75516332D01*
X195403737Y-75516334D01*
X195398856Y-75519238D01*
X195239881Y-75658655D01*
X195236362Y-75663119D01*
X195236359Y-75663122D01*
X195177731Y-75737492D01*
X195108976Y-75824708D01*
X195097914Y-75845733D01*
X195026685Y-75981117D01*
X194978050Y-76031281D01*
X194910015Y-76047187D01*
X194844181Y-76023786D01*
X194804565Y-75975786D01*
X194713890Y-75781333D01*
X194708492Y-75771983D01*
X194579216Y-75587357D01*
X194572281Y-75579093D01*
X194412909Y-75419721D01*
X194404643Y-75412785D01*
X194220008Y-75283502D01*
X194210676Y-75278114D01*
X194006397Y-75182857D01*
X193996264Y-75179168D01*
X193805221Y-75127978D01*
X193791347Y-75128309D01*
X193788000Y-75136125D01*
X193788000Y-77766806D01*
X193288000Y-77766806D01*
X193288000Y-76721830D01*
X193283596Y-76706831D01*
X193282226Y-76705644D01*
X193274668Y-76704000D01*
X192225194Y-76704000D01*
X192211877Y-76707910D01*
X192210667Y-76716326D01*
X185277553Y-76716326D01*
X185307501Y-76649813D01*
X185364315Y-76523631D01*
X185369592Y-76513246D01*
X185538662Y-76215948D01*
X185544892Y-76206099D01*
X185558427Y-76186779D01*
X192211978Y-76186779D01*
X192212309Y-76200653D01*
X192220125Y-76204000D01*
X193270170Y-76204000D01*
X193285169Y-76199596D01*
X193286356Y-76198226D01*
X193288000Y-76190668D01*
X193288000Y-75141194D01*
X193284090Y-75127877D01*
X193275674Y-75126667D01*
X193079736Y-75179168D01*
X193069603Y-75182857D01*
X192865333Y-75278110D01*
X192855983Y-75283508D01*
X192671357Y-75412784D01*
X192663093Y-75419719D01*
X192503719Y-75579093D01*
X192496784Y-75587357D01*
X192367508Y-75771983D01*
X192362110Y-75781333D01*
X192266857Y-75985603D01*
X192263168Y-75995736D01*
X192211978Y-76186779D01*
X185558427Y-76186779D01*
X185741144Y-75925958D01*
X185748272Y-75916739D01*
X185969936Y-75656282D01*
X185977897Y-75647772D01*
X186223044Y-75409263D01*
X186231769Y-75401538D01*
X186498222Y-75187096D01*
X186507634Y-75180224D01*
X186793042Y-74991743D01*
X186803058Y-74985785D01*
X187104898Y-74824930D01*
X187115428Y-74819939D01*
X187309005Y-74739093D01*
X187431043Y-74688125D01*
X187441976Y-74684152D01*
X187768580Y-74582548D01*
X187779841Y-74579617D01*
X188114546Y-74509120D01*
X188126033Y-74507259D01*
X188437316Y-74471753D01*
X188454997Y-74471703D01*
X188461177Y-74471291D01*
X188471964Y-74472460D01*
X188482499Y-74469870D01*
X188493322Y-74469148D01*
X188493357Y-74469679D01*
X188503089Y-74468500D01*
X218641381Y-74468500D01*
X218662423Y-74470298D01*
G37*
%TD.AperFunction*%
%TD*%
M02*
